<?xml version="1.0" encoding="utf-8"?>
<!-- Generator: Adobe Illustrator 25.4.1, SVG Export Plug-In . SVG Version: 6.00 Build 0)  -->
<svg version="1.1" id="Lager_1" xmlns="http://www.w3.org/2000/svg" xmlns:xlink="http://www.w3.org/1999/xlink" x="0px" y="0px"
	 viewBox="0 0 128 128" style="enable-background:new 0 0 128 128;" xml:space="preserve">
<style type="text/css">
	.st0{fill:#FFFFFF;}
	.st1{fill:none;stroke:#FFFFFF;stroke-width:4.5;stroke-miterlimit:10;}
</style>
<g>
	<path class="st0" d="M6.4,21.5v84.9c0,8.4,6.8,15.1,15.1,15.1h84.9c8.4,0,15.1-6.8,15.1-15.1V21.5c0-8.4-6.8-15.1-15.1-15.1H21.5
		C13.2,6.4,6.4,13.2,6.4,21.5z M112,100.4c-2.1,2.9-5,5.1-8.5,6.1l-35.3-3.6c-4.4-0.1-4-0.1-4.1-0.1c-0.1,0-0.6,0-4.1,0.1l-34.2,3.6
		c-3.5-0.9-6.4-3.1-8.5-6.1c-2.1-3-3.3-6.7-3.3-10.7c0-8,4.9-14.9,11.8-16.7c0.8-0.2,1.6-0.4,2.5-0.6c-1.8-2.9-2.8-6.7-2.8-10.8
		c0.1-7.6,3.9-14.2,9.3-16c4.4-1.4,8.8-2.5,13.2-3.3c-0.1-1.3-0.2-2.7-0.1-4.1c0.1-7.3,1.7-13.6,4.1-15.3c4.2-3.1,8.5-4.6,12.8-4.6
		c4.4,0,8.8,1.6,13,4.8c2.2,1.7,3.8,7.8,3.8,15v0.4c0,1.4-0.1,2.7-0.2,4c4.6,0.9,9.1,2,13.6,3.6c5.3,1.8,9,8.4,9,15.9v0.2
		c0,3.8-1,7.3-2.6,10.1c0.8,0.2,1.5,0.4,2.3,0.6c3.5,0.9,6.4,3.1,8.5,6.1c2.1,3,3.3,6.7,3.3,10.7C115.3,93.8,114.1,97.5,112,100.4z"
		/>
	<g>
		<path class="st1" d="M48.7,42c-2.3-1.7-0.8,3.3-0.7-4v0c0.1-7.3,1.7-13.6,4.1-15.3l0,0c8.6-6.2,17.4-6.1,25.8,0.2l0,0
			c2.3,1.7,3.9,8.1,3.8,15.4v0c-0.1,7.3,1.3,2-1,3.7"/>
		<path class="st1" d="M30,71.5c-0.6-0.9-4.4-2.5-4.3-10.1v0c0.1-7.6,3.9-14.2,9.3-16l0,0C54.7,39,75.3,39.2,95,45.9l0,0
			c5.3,1.8,9.1,8.5,9,16.1v0c-0.1,7.6-3.4,8.6-4.6,9.3"/>
		<path class="st1" d="M14.2,89.5L14.2,89.5c0-8,4.9-14.9,11.8-16.7l0,0c25.5-6.8,52.3-6.8,77.7,0l0,0c6.9,1.9,11.8,8.8,11.8,16.7v0
			c0,8-4.9,14.9-11.8,16.7h0l-35.3-3.6l0,0c-7.9-0.1-0.3-0.2-8.2,0l0,0L26,106.3h0C19.1,104.4,14.2,97.5,14.2,89.5z"/>
	</g>
</g>
</svg>
